<svg width="1643" height="3064" viewBox="0 0 1643 3064" fill="none" xmlns="http://www.w3.org/2000/svg">
<path opacity="0.8" d="M710.314 1448.27L884.245 1274.11C929.48 1228.82 1002.8 1228.82 1048.04 1274.11L1444.91 1671.51C1517.98 1744.68 1642.95 1692.86 1642.95 1589.38L1642.95 1240.81C1642.95 1209.9 1630.67 1180.29 1608.85 1158.44L1386.2 935.497C1340.97 890.202 1340.97 816.785 1386.2 771.54L1609.05 548.401C1630.77 526.649 1642.95 497.133 1642.95 466.372L1642.95 116.16C1642.95 12.8776 1518.23 -38.8384 1445.31 34.1806L627.946 853.518L290.225 1191.69L33.9262 1448.32C-11.3088 1493.62 -11.3088 1567.04 33.9262 1612.33L1450.58 3030.7C1521.61 3101.83 1643 3051.46 1643 2950.86L1643 2598.06C1643 2564.81 1629.83 2532.96 1606.31 2509.42L710.314 1612.23C665.079 1566.94 665.079 1493.52 710.314 1448.22L710.314 1448.27Z" fill="#E7E7E7"/>
</svg>
