<svg width="751" height="1400" viewBox="0 0 751 1400" fill="none" xmlns="http://www.w3.org/2000/svg">
<path opacity="0.8" d="M324.678 661.744L404.18 582.166C424.857 561.47 458.371 561.47 479.047 582.166L660.455 763.746C693.856 797.178 750.977 773.502 750.977 726.22L750.977 566.951C750.977 552.828 745.365 539.296 735.39 529.312L633.621 427.446C612.945 406.75 612.945 373.204 633.621 352.531L735.481 250.575C745.411 240.636 750.977 227.15 750.977 213.094L750.977 53.0755C750.977 5.884 693.969 -17.746 660.637 15.6178L287.028 389.989L132.659 544.504L15.5073 661.766C-5.16916 682.463 -5.16915 716.008 15.5073 736.704L663.045 1384.79C695.514 1417.29 751 1394.27 751 1348.31L751 1187.1C751 1171.91 744.979 1157.36 734.232 1146.6L324.678 736.659C304.001 715.963 304.001 682.417 324.678 661.721L324.678 661.744Z" fill="#E7E7E7"/>
</svg>
